# Blender 4.3.1
# www.blender.org
mtllib untitled.mtl
o model
v 0.000000 -1.104947 0.000002
v -0.398586 -1.030552 0.000002
v -0.123171 -1.030552 0.379078
v -0.743500 -0.817384 0.000002
v -0.529828 -0.889952 0.384944
v -0.229755 -0.817384 0.707112
v -0.698831 -0.494149 -0.698829
v -0.880878 -0.571046 -0.344781
v -0.944307 -0.571046 0.055700
v -0.880578 -0.494149 0.448676
v 0.322465 -1.030552 0.234284
v 0.202376 -0.889952 0.622850
v 0.601503 -0.817384 0.437018
v -0.600110 -0.571046 0.731222
v -0.238835 -0.571046 0.915302
v 0.154603 -0.494149 0.976127
v 0.322465 -1.030552 -0.234284
v 0.654905 -0.889952 0.000002
v 0.601503 -0.817385 -0.437018
v 0.509990 -0.571046 0.796698
v 0.923968 -0.571046 -0.202736
v 0.976129 -0.494149 0.154604
v -0.123171 -1.030552 -0.379079
v 0.202376 -0.889952 -0.622850
v -0.229755 -0.817385 -0.707112
v 0.478336 -0.571046 -0.816098
v 0.092710 -0.571046 -0.941394
v 0.448678 -0.494149 -0.880577
v -0.529828 -0.889952 -0.384944
v -0.628341 -0.571046 -0.707112
v -0.866671 -0.571046 -0.379079
v -0.588086 -0.172456 -0.919413
v -0.919414 -0.172456 -0.588088
v -1.000093 0.172458 -0.437018
v -1.088878 0.187766 0.000002
v -1.000093 0.172458 0.437018
v -0.799549 0.494147 -0.580906
v -0.509989 0.571044 -0.796699
v -0.923967 0.571044 0.202736
v -0.799549 0.494147 0.580905
v -1.056145 -0.172456 0.275190
v -0.843420 -0.172456 0.692685
v -0.724674 0.172458 0.816098
v -0.336481 0.187766 1.035584
v 0.106584 0.172458 1.086188
v -0.478335 0.571044 0.816098
v -0.092709 0.571044 0.941394
v 0.305402 0.494147 0.939924
v -0.064646 -0.172456 1.089491
v 0.398151 -0.172456 1.016192
v 0.552219 0.172458 0.941394
v 0.880919 0.187766 0.640026
v 1.065964 0.172458 0.234284
v 0.628341 0.571044 0.707112
v 0.866672 0.571044 0.379078
v 0.988296 0.494147 0.000002
v 1.016191 -0.172456 0.398153
v 1.089489 -0.172456 -0.064645
v 1.065964 0.172458 -0.234284
v 0.880919 0.187766 -0.640027
v 0.552219 0.172458 -0.941394
v 0.880879 0.571044 0.344780
v 0.944307 0.571044 -0.055700
v 0.305402 0.494147 -0.939924
v 0.692684 -0.172456 -0.843419
v 0.275188 -0.172456 -1.056144
v 0.106584 0.172458 -1.086189
v -0.336481 0.187766 -1.035585
v -0.724674 0.172458 -0.816099
v 0.600110 0.571044 -0.731222
v 0.238835 0.571044 -0.915303
v -1.075472 -0.187767 -0.170336
v -0.494341 -0.187767 0.970196
v 0.769954 -0.187767 0.769952
v 0.970198 -0.187767 -0.494340
v -0.170337 -0.187767 -1.075471
v 0.000000 1.104946 0.000002
v -0.180953 1.030554 0.355144
v -0.393678 1.030554 -0.062352
v -0.337541 0.817383 0.662465
v -0.583525 0.889950 0.297321
v -0.734346 0.817383 -0.116309
v 0.281844 1.030554 0.281845
v 0.525733 0.817383 0.525734
v 0.102448 0.889950 0.646843
v 0.355143 1.030554 -0.180956
v 0.662464 0.817383 -0.337544
v 0.646841 0.889950 0.102449
v -0.062353 1.030554 -0.393681
v -0.116311 0.817383 -0.734349
v 0.297320 0.889950 -0.583524
v -0.463086 0.889950 -0.463088
vn -0.1819 -0.9744 0.1321
vn -0.5212 -0.8434 0.1303
vn -0.3151 -0.9210 0.2290
vn -0.2850 -0.8434 0.4555
vn -0.4385 -0.8047 -0.4002
vn -0.8270 0.2463 0.5055
vn -0.5620 -0.8223 -0.0890
vn -0.6964 -0.1910 0.6917
vn -0.5074 -0.8265 0.2440
vn 0.0695 -0.9744 0.2138
vn -0.0371 -0.8434 0.5360
vn 0.1204 -0.9210 0.3705
vn 0.3451 -0.8434 0.4118
vn -0.5161 -0.8047 0.2933
vn 0.2252 0.2463 0.9427
vn -0.2583 -0.8223 0.5070
vn 0.4426 -0.1910 0.8761
vn 0.0753 -0.8265 0.5579
vn 0.2248 -0.9744 -0.0000
vn 0.4983 -0.8434 0.2009
vn 0.3895 -0.9210 -0.0000
vn 0.4983 -0.8434 -0.2009
vn 0.1195 -0.8047 0.5815
vn 0.9661 0.2462 0.0772
vn 0.8142 -0.4726 0.3373
vn 0.6824 -0.7030 -0.2001
vn -0.5595 0.8233 -0.0955
vn 0.0695 -0.9744 -0.2138
vn 0.3451 -0.8434 -0.4118
vn 0.1204 -0.9210 -0.3705
vn -0.0371 -0.8434 -0.5360
vn 0.8741 -0.2253 -0.4304
vn 0.4012 -0.7030 -0.5872
vn 0.2362 -0.6449 -0.7269
vn 0.0206 -0.7030 -0.7109
vn -0.2637 0.8233 0.5027
vn -0.1819 -0.9744 -0.1321
vn -0.2850 -0.8434 -0.4555
vn -0.3151 -0.9210 -0.2290
vn -0.5212 -0.8434 -0.1303
vn -0.1392 -0.2253 -0.9643
vn -0.4345 -0.7030 -0.5630
vn -0.6183 -0.6449 -0.4492
vn -0.6697 -0.7030 -0.2392
vn 0.3966 0.8233 0.4061
vn -0.6874 -0.2347 -0.6874
vn -0.7170 -0.6864 -0.1216
vn -0.5463 0.6349 -0.5463
vn -0.7889 -0.5985 0.1393
vn 0.6003 -0.0166 0.7996
vn -0.6924 0.7023 -0.1653
vn -0.7922 0.5145 -0.3282
vn -0.9340 0.2960 0.2001
vn -0.8559 0.3736 0.3576
vn -0.8661 -0.2347 0.4413
vn -0.3372 -0.6864 0.6443
vn -0.6884 0.6349 0.3508
vn -0.1113 -0.5986 0.7933
vn -0.6046 0.3736 0.7035
vn -0.4789 0.2960 0.8264
vn -0.2839 0.3952 0.8736
vn -0.0983 0.2960 0.9501
vn 0.0756 0.3736 0.9245
vn 0.1521 -0.2347 0.9601
vn 0.5086 -0.6864 0.5198
vn 0.1209 0.6349 0.7631
vn 0.7201 -0.5985 0.3510
vn 0.4823 0.3736 0.7924
vn 0.6380 0.2960 0.7109
vn 0.7432 0.3952 0.5399
vn 0.8732 0.2960 0.3871
vn 0.9026 0.3736 0.2138
vn 0.9601 -0.2347 0.1521
vn 0.6516 -0.6864 -0.3231
vn 0.7631 0.6349 0.1209
vn 0.5563 -0.5985 -0.5764
vn -0.9556 -0.0166 -0.2940
vn 0.6573 0.7023 -0.2733
vn 0.9165 -0.3729 0.1452
vn 0.4467 0.7251 -0.5241
vn 0.6715 0.5176 -0.5302
vn 0.4413 -0.2347 -0.8661
vn -0.1059 -0.6864 -0.7195
vn 0.3508 0.6349 -0.6884
vn -0.3763 -0.5985 -0.7072
vn -0.5750 -0.0166 0.8180
vn -0.0568 0.7023 -0.7096
vn 0.4213 -0.3729 -0.8268
vn -0.3604 0.7251 -0.5868
vn -0.2968 0.5176 -0.8025
vn -0.7864 0.2347 0.5714
vn -0.7272 0.6864 0.0080
vn -0.6251 -0.6349 0.4541
vn -0.7574 0.5985 -0.2610
vn -0.9013 -0.3736 0.2193
vn -0.9538 -0.2960 0.0515
vn -0.9073 -0.3952 -0.1437
vn -0.8912 -0.2960 -0.3438
vn -0.7894 -0.3736 -0.4871
vn 0.3004 0.2347 0.9245
vn -0.2171 0.6864 0.6941
vn 0.2387 -0.6349 0.7348
vn -0.4823 0.5985 0.6397
vn -0.0700 -0.3736 0.9249
vn -0.2457 -0.2960 0.9230
vn -0.4170 -0.3952 0.8185
vn -0.6023 -0.2960 0.7413
vn -0.7072 -0.3736 0.6003
vn 0.9721 0.2347 -0.0000
vn 0.5930 0.6864 0.4210
vn 0.7726 -0.6349 -0.0000
vn 0.4593 0.5985 0.6563
vn -0.9899 0.0166 0.1409
vn 0.6065 -0.7023 0.3728
vn 0.7922 -0.5145 0.3282
vn 0.5189 -0.2960 0.8019
vn 0.3524 -0.3736 0.8580
vn 0.3004 0.2347 -0.9245
vn 0.5836 0.6864 -0.4339
vn 0.2387 -0.6349 -0.7348
vn 0.7661 0.5985 -0.2340
vn -0.1719 0.0166 0.9850
vn 0.5419 -0.7023 -0.4616
vn 0.2867 0.3729 -0.8825
vn 0.6698 -0.7251 -0.1601
vn 0.7773 -0.5176 -0.3576
vn -0.7864 0.2347 -0.5714
vn -0.2323 0.6864 -0.6892
vn -0.6251 -0.6349 -0.4541
vn 0.0142 0.5985 -0.8010
vn 0.8837 0.0166 0.4678
vn -0.2716 -0.7023 -0.6581
vn -0.7507 0.3729 -0.5454
vn 0.0547 -0.7251 -0.6865
vn -0.0999 -0.5176 -0.8497
vn -0.2003 0.9744 0.1021
vn -0.3528 0.8434 0.4053
vn -0.3471 0.9210 0.1768
vn -0.5352 0.8434 0.0472
vn 0.1575 0.8047 0.5724
vn -0.8258 -0.2463 0.5074
vn -0.1758 0.8223 0.5412
vn -0.9325 0.1910 0.3065
vn -0.4477 0.8265 0.3413
vn 0.0352 0.9744 0.2220
vn 0.2764 0.8434 0.4607
vn 0.0609 0.9210 0.3847
vn -0.1205 0.8434 0.5236
vn 0.5931 0.8047 0.0270
vn 0.2274 -0.2462 0.9422
vn 0.4603 0.8223 0.3345
vn 0.0033 0.1910 0.9816
vn 0.1862 0.8265 0.5313
vn 0.2220 0.9744 0.0352
vn 0.5236 0.8434 -0.1205
vn 0.3847 0.9210 0.0609
vn 0.4607 0.8434 0.2764
vn 0.7803 0.2253 -0.5834
vn 0.7053 0.7030 -0.0909
vn 0.7549 0.6449 0.1196
vn 0.6427 0.7030 0.3044
vn -0.5676 -0.8233 0.0068
vn 0.1021 0.9744 -0.2003
vn 0.0472 0.8434 -0.5352
vn 0.1768 0.9210 -0.3471
vn 0.4053 0.8434 -0.3528
vn -0.3137 0.2253 -0.9224
vn 0.1315 0.7030 -0.6989
vn 0.3470 0.6449 -0.6810
vn 0.4881 0.7030 -0.5172
vn -0.1690 -0.8233 0.5419
vn -0.1590 0.9744 -0.1590
vn -0.4944 0.8434 -0.2103
vn -0.2754 0.9210 -0.2754
vn -0.2103 0.8434 -0.4944
vn -0.4957 0.8047 0.3267
vn -0.7377 -0.2463 -0.6286
vn -0.8142 0.4726 -0.3373
vn -0.3411 0.7030 -0.6241
vn 0.4632 -0.8233 0.3281
vt 0.600000 1.000000
vt 0.500000 0.882500
vt 0.700000 0.882500
vt 0.500000 0.765100
vt 0.600000 0.798100
vt 0.700000 0.765100
vt 0.500000 0.647600
vt 0.565600 0.672900
vt 0.634400 0.672900
vt 0.700000 0.647600
vt 0.800000 1.000000
vt 0.900000 0.882500
vt 0.800000 0.798100
vt 0.900000 0.765100
vt 0.765600 0.672900
vt 0.834400 0.672900
vt 0.900000 0.647600
vt 0.000000 1.000000
vt -0.100000 0.882500
vt 0.100000 0.882500
vt -0.100000 0.765100
vt 0.000000 0.798100
vt 0.100000 0.765100
vt 0.965600 0.672900
vt -0.034400 0.672900
vt 0.034400 0.672900
vt 0.100000 0.647600
vt 0.200000 1.000000
vt 0.300000 0.882500
vt 0.200000 0.798100
vt 0.300000 0.765100
vt 0.165600 0.672900
vt 0.234400 0.672900
vt 0.300000 0.647600
vt 0.400000 1.000000
vt 0.400000 0.798100
vt 0.365600 0.672900
vt 0.434400 0.672900
vt 0.465600 0.549900
vt 0.534400 0.549900
vt 0.434400 0.450100
vt 0.500000 0.445600
vt 0.565600 0.450100
vt 0.400000 0.352400
vt 0.465600 0.327100
vt 0.534400 0.327100
vt 0.600000 0.352400
vt 0.665600 0.549900
vt 0.734400 0.549900
vt 0.634400 0.450100
vt 0.700000 0.445600
vt 0.765600 0.450100
vt 0.665600 0.327100
vt 0.734400 0.327100
vt 0.800000 0.352400
vt 0.865600 0.549900
vt 0.934400 0.549900
vt 0.834400 0.450100
vt 0.900000 0.445600
vt 0.965600 0.450100
vt 0.865600 0.327100
vt 0.934400 0.327100
vt -0.034400 0.450100
vt -0.065600 0.327100
vt 0.000000 0.352400
vt 0.065600 0.549900
vt 0.134400 0.549900
vt 0.034400 0.450100
vt 0.100000 0.445600
vt 0.165600 0.450100
vt 0.065600 0.327100
vt 0.134400 0.327100
vt 0.200000 0.352400
vt 0.265600 0.549900
vt 0.334400 0.549900
vt 0.234400 0.450100
vt 0.300000 0.445600
vt 0.365600 0.450100
vt 0.265600 0.327100
vt 0.334400 0.327100
vt 0.600000 0.554400
vt 0.800000 0.554400
vt 0.000000 0.554400
vt -0.065600 0.549900
vt 0.200000 0.554400
vt 0.400000 0.554400
vt 0.700000 0.000000
vt 0.800000 0.117500
vt 0.600000 0.117500
vt 0.800000 0.234900
vt 0.700000 0.201900
vt 0.600000 0.234900
vt -0.100000 0.000000
vt 0.000000 0.117500
vt -0.200000 0.117500
vt 0.000000 0.234900
vt -0.100000 0.201900
vt 0.900000 0.201900
vt 0.100000 0.000000
vt 0.200000 0.117500
vt 0.200000 0.234900
vt 0.100000 0.201900
vt 0.300000 0.000000
vt 0.400000 0.117500
vt 0.400000 0.234900
vt 0.300000 0.201900
vt 0.500000 0.000000
vt 0.500000 0.201900
s 1
usemtl 05___Default
f 1/1/1 3/3/1 2/2/1
f 1/11/10 11/12/10 3/3/10
f 3/3/12 11/12/12 12/13/12
f 1/18/19 17/20/19 11/19/19
f 1/28/28 23/29/28 17/20/28
f 17/20/29 24/30/29 19/23/29
f 17/20/30 23/29/30 24/30/30
f 23/29/31 25/31/31 24/30/31
f 19/23/33 24/30/33 26/32/33
f 24/30/34 27/33/34 26/32/34
f 24/30/35 25/31/35 27/33/35
f 1/35/37 2/2/37 23/29/37
f 23/29/38 29/36/38 25/31/38
f 16/17/64 50/57/64 49/56/64
f 49/56/66 50/57/66 52/59/66
f 50/57/67 53/60/67 52/59/67
f 52/59/71 53/60/71 55/62/71
f 53/63/72 56/65/72 55/64/72
f 22/27/73 58/67/73 57/66/73
f 57/66/74 60/69/74 59/68/74
f 57/66/75 58/67/75 60/69/75
f 58/67/76 61/70/76 60/69/76
f 59/68/77 62/71/77 56/65/77
f 59/68/78 60/69/78 62/71/78
f 60/69/79 63/72/79 62/71/79
f 60/69/80 61/70/80 63/72/80
f 28/34/82 66/75/82 65/74/82
f 65/74/84 66/75/84 68/77/84
f 66/75/85 69/78/85 68/77/85
f 69/78/90 37/44/90 71/80/90
f 49/56/104 15/16/104 16/17/104
f 56/65/109 53/63/109 59/68/109
f 59/68/110 74/83/110 57/66/110
f 59/68/111 53/63/111 74/83/111
f 53/63/112 50/84/112 74/83/112
f 57/66/113 21/26/113 22/27/113
f 57/66/114 74/83/114 21/26/114
f 74/83/115 20/25/115 21/26/115
f 74/83/116 50/84/116 20/25/116
f 50/57/117 16/17/117 20/24/117
f 37/44/127 69/78/127 34/41/127
f 34/41/128 76/86/128 32/39/128
f 34/41/129 69/78/129 76/86/129
f 69/78/130 66/75/130 76/86/130
f 32/39/132 76/86/132 31/38/132
f 76/86/133 30/37/133 31/38/133
f 76/86/134 66/75/134 30/37/134
f 66/75/135 28/34/135 30/37/135
usemtl 04___Default
f 2/2/2 5/5/2 4/4/2
f 2/2/3 3/3/3 5/5/3
f 3/3/4 6/6/4 5/5/4
f 4/4/5 8/8/5 7/7/5
f 4/4/6 5/5/6 8/8/6
f 5/5/7 9/9/7 8/8/7
f 5/5/8 6/6/8 9/9/8
f 6/6/9 10/10/9 9/9/9
f 3/3/11 12/13/11 6/6/11
f 11/12/13 13/14/13 12/13/13
f 6/6/14 14/15/14 10/10/14
f 6/6/15 12/13/15 14/15/15
f 12/13/16 15/16/16 14/15/16
f 12/13/17 13/14/17 15/16/17
f 13/14/18 16/17/18 15/16/18
f 11/19/20 18/22/20 13/21/20
f 11/19/21 17/20/21 18/22/21
f 17/20/22 19/23/22 18/22/22
f 13/14/23 20/24/23 16/17/23
f 13/21/24 18/22/24 20/25/24
f 18/22/25 21/26/25 20/25/25
f 18/22/26 19/23/26 21/26/26
f 19/23/27 22/27/27 21/26/27
f 19/23/32 26/32/32 22/27/32
f 25/31/36 28/34/36 27/33/36
f 23/29/39 2/2/39 29/36/39
f 2/2/40 4/4/40 29/36/40
f 25/31/41 30/37/41 28/34/41
f 25/31/42 29/36/42 30/37/42
f 29/36/43 31/38/43 30/37/43
f 29/36/44 4/4/44 31/38/44
f 4/4/45 7/7/45 31/38/45
f 7/7/46 33/40/46 32/39/46
f 32/39/47 35/42/47 34/41/47
f 32/39/48 33/40/48 35/42/48
f 33/40/49 36/43/49 35/42/49
f 34/41/50 38/45/50 37/44/50
f 34/41/51 35/42/51 38/45/51
f 35/42/52 39/46/52 38/45/52
f 35/42/53 36/43/53 39/46/53
f 36/43/54 40/47/54 39/46/54
f 10/10/55 42/49/55 41/48/55
f 41/48/56 44/51/56 43/50/56
f 41/48/57 42/49/57 44/51/57
f 42/49/58 45/52/58 44/51/58
f 43/50/59 46/53/59 40/47/59
f 43/50/60 44/51/60 46/53/60
f 44/51/61 47/54/61 46/53/61
f 44/51/62 45/52/62 47/54/62
f 45/52/63 48/55/63 47/54/63
f 49/56/65 52/59/65 51/58/65
f 51/58/68 54/61/68 48/55/68
f 51/58/69 52/59/69 54/61/69
f 52/59/70 55/62/70 54/61/70
f 61/70/81 64/73/81 63/72/81
f 65/74/83 68/77/83 67/76/83
f 67/76/86 70/79/86 64/73/86
f 67/76/87 68/77/87 70/79/87
f 68/77/88 71/80/88 70/79/88
f 68/77/89 69/78/89 71/80/89
f 40/47/91 36/43/91 43/50/91
f 43/50/92 72/81/92 41/48/92
f 43/50/93 36/43/93 72/81/93
f 36/43/94 33/40/94 72/81/94
f 41/48/95 9/9/95 10/10/95
f 41/48/96 72/81/96 9/9/96
f 72/81/97 8/8/97 9/9/97
f 72/81/98 33/40/98 8/8/98
f 33/40/99 7/7/99 8/8/99
f 48/55/100 45/52/100 51/58/100
f 51/58/101 73/82/101 49/56/101
f 51/58/102 45/52/102 73/82/102
f 45/52/103 42/49/103 73/82/103
f 49/56/105 73/82/105 15/16/105
f 73/82/106 14/15/106 15/16/106
f 73/82/107 42/49/107 14/15/107
f 42/49/108 10/10/108 14/15/108
f 64/73/118 61/70/118 67/76/118
f 67/76/119 75/85/119 65/74/119
f 67/76/120 61/70/120 75/85/120
f 61/70/121 58/67/121 75/85/121
f 65/74/122 27/33/122 28/34/122
f 65/74/123 75/85/123 27/33/123
f 75/85/124 26/32/124 27/33/124
f 75/85/125 58/67/125 26/32/125
f 58/67/126 22/27/126 26/32/126
f 32/39/131 31/38/131 7/7/131
f 77/87/136 79/89/136 78/88/136
f 78/88/137 81/91/137 80/90/137
f 78/88/138 79/89/138 81/91/138
f 79/89/139 82/92/139 81/91/139
f 80/90/140 47/54/140 48/55/140
f 80/90/141 81/91/141 47/54/141
f 81/91/142 46/53/142 47/54/142
f 81/91/143 82/92/143 46/53/143
f 82/92/144 40/47/144 46/53/144
f 77/93/145 78/95/145 83/94/145
f 83/94/146 85/97/146 84/96/146
f 83/94/147 78/95/147 85/97/147
f 78/88/148 80/90/148 85/98/148
f 84/96/149 55/64/149 56/65/149
f 84/96/150 85/97/150 55/64/150
f 85/98/151 54/61/151 55/62/151
f 85/98/152 80/90/152 54/61/152
f 80/90/153 48/55/153 54/61/153
f 77/99/154 83/94/154 86/100/154
f 86/100/155 88/102/155 87/101/155
f 86/100/156 83/94/156 88/102/156
f 83/94/157 84/96/157 88/102/157
f 87/101/158 63/72/158 64/73/158
f 87/101/159 88/102/159 63/72/159
f 88/102/160 62/71/160 63/72/160
f 88/102/161 84/96/161 62/71/161
f 84/96/162 56/65/162 62/71/162
f 77/103/163 86/100/163 89/104/163
f 89/104/164 91/106/164 90/105/164
f 89/104/165 86/100/165 91/106/165
f 86/100/166 87/101/166 91/106/166
f 90/105/167 71/80/167 37/44/167
f 90/105/168 91/106/168 71/80/168
f 91/106/169 70/79/169 71/80/169
f 91/106/170 87/101/170 70/79/170
f 87/101/171 64/73/171 70/79/171
f 77/107/172 89/104/172 79/89/172
f 79/89/173 92/108/173 82/92/173
f 79/89/174 89/104/174 92/108/174
f 89/104/175 90/105/175 92/108/175
f 82/92/176 39/46/176 40/47/176
f 82/92/177 92/108/177 39/46/177
f 92/108/178 38/45/178 39/46/178
f 92/108/179 90/105/179 38/45/179
f 90/105/180 37/44/180 38/45/180
