# Blender 4.3.1
# www.blender.org
mtllib model.mtl
o model
v 0.075784 0.905572 -0.428363
v 0.136894 0.722767 -0.775627
v 0.361672 0.736818 -0.653662
v -0.229022 0.794189 -0.657341
v -0.314179 0.854709 -0.483910
v -0.296571 0.911238 -0.290294
v -0.180916 0.948631 -0.128372
v 0.001796 0.956866 -0.041532
v 0.202607 0.933738 -0.053042
v 0.367711 0.885444 -0.159818
v 0.452868 0.824924 -0.333249
v 0.192286 0.473334 -1.106955
v 0.551469 0.507980 -0.905977
v -0.111808 0.419218 -1.090258
v -0.422102 0.509981 -0.889586
v -0.620507 0.786940 -0.220026
v -0.653599 0.680699 -0.583905
v -0.113545 0.881187 0.293711
v -0.456931 0.865709 0.130505
v 0.699749 0.713082 0.030381
v 0.389455 0.803846 0.231054
v 0.733769 0.588743 -0.288591
v 0.731005 0.544501 -0.680216
v 0.248564 0.370474 -1.127038
v 0.408003 0.377159 -0.996262
v -0.163578 0.343655 -1.109194
v 0.025755 0.334814 -1.114203
v 0.019119 0.338887 -1.113048
v -0.490945 0.451295 -0.890612
v -0.672430 0.577459 -0.657415
v -0.683887 0.747994 -0.176670
v -0.686886 0.746151 -0.174619
v -0.736603 0.622665 -0.558755
v -0.513857 0.780968 0.246553
v -0.618113 0.747738 -0.047338
v -0.125916 0.802088 0.424607
v -0.126107 0.800869 0.426623
v -0.515164 0.779022 0.249218
v 0.060018 0.777439 0.419179
v 0.064333 0.774860 0.422298
v 0.726360 0.632324 0.144522
v 0.379453 0.734424 0.367743
v 0.379768 0.736609 0.363440
v 0.825185 0.495110 -0.212925
v 0.753244 0.538950 0.000156
v 0.819448 0.468807 -0.310952
v 0.719696 0.404893 -0.687814
v 0.791493 0.471595 -0.600044
v 0.809324 0.198235 -0.790329
v 0.390522 0.111009 -1.177696
v 0.522109 -0.302537 -1.172150
v -0.315035 0.122591 -1.164591
v -0.110729 -0.251082 -1.315663
v -0.733093 0.244875 -0.894225
v -0.575704 -0.187160 -1.208340
v -1.038883 0.032512 -0.717602
v -1.005860 0.434409 -0.477171
v -1.113709 0.248809 0.073142
v -0.611285 0.635934 0.445170
v -0.880893 0.326378 0.608109
v -0.148642 0.656787 0.665057
v 0.359831 0.598226 0.635914
v -0.354794 0.350091 0.858156
v 0.777889 0.475941 0.365548
v -0.027483 0.358033 0.924944
v 0.993514 0.322700 -0.073595
v 0.672490 0.174434 0.660562
v 0.978325 0.246408 -0.352414
v 1.181811 -0.090844 -0.317297
v 0.942274 -0.255385 -0.846307
v 0.183281 -0.717545 -1.144990
v 0.685154 -0.606032 -0.884947
v -0.497333 -0.628048 -1.051762
v -0.908642 -0.505468 -0.759629
v -1.153842 -0.331208 -0.260253
v -1.093650 -0.166149 0.209162
v -0.879662 -0.058715 0.677267
v 0.322008 -0.111309 0.930889
v 1.066599 -0.414810 0.175905
v 0.809584 -0.242710 0.672932
v 1.034897 0.030319 0.284109
v 0.996336 -0.545728 -0.432499
v 0.195918 -1.064591 -0.828295
v -0.277104 -1.006738 -0.912750
v -0.699876 -0.947239 -0.706620
v -1.099744 -0.673495 0.044595
v -1.053699 -0.811488 -0.375028
v -0.985928 -0.283380 0.474130
v -1.098376 -0.559623 0.081531
v -0.358692 -0.091258 0.910859
v -0.875006 -0.509610 0.540513
v -0.003809 -0.325707 0.947008
v -0.175424 -0.351896 0.977544
v 0.568949 -0.614166 0.799655
v 0.847674 -0.778680 0.428256
v 1.004990 -0.591976 0.085396
v 0.892149 -0.916467 -0.080378
v 0.985003 -0.740959 -0.277737
v 0.637659 -1.070892 -0.542684
v -0.070863 -1.271429 -0.555366
v 0.272524 -1.255952 -0.392160
v -0.363232 -1.196509 -0.517204
v -0.673527 -1.105746 -0.316532
v -0.822048 -0.989896 0.064481
v -0.788956 -0.883655 0.428360
v -0.583118 -0.815491 0.677604
v -0.535471 -0.430989 0.897155
v -0.239731 -0.800014 0.840810
v 0.137672 -0.843480 0.819179
v 0.631402 -1.080857 0.305084
v 0.574916 -1.154224 -0.071317
v -0.029952 -1.376767 -0.108598
v -0.264584 -1.303249 -0.147585
v -0.429688 -1.254955 -0.040809
v -0.514845 -1.194435 0.132622
v -0.497237 -1.137906 0.326238
v -0.381582 -1.100514 0.488159
v -0.198870 -1.092278 0.574999
v 0.489970 -0.911870 0.608956
v 0.209050 -1.141328 0.447164
v 0.264315 -1.204174 0.395924
v 0.278409 -1.295043 0.173733
v 0.136274 -1.344855 -0.014042
v -0.128479 -1.241175 0.231863
v 0.011223 -1.081499 0.567616
v 0.782397 0.230581 -0.802406
v 0.754093 0.222859 -0.818670
v -0.961276 0.577546 0.013082
v -0.906772 0.611037 -0.024202
v -0.612331 0.653050 0.369773
v 0.366287 0.155305 -1.169048
v 0.323944 0.151859 -1.166108
v 0.660835 0.376606 -0.856926
v -0.120301 0.096280 0.898770
v 0.757366 0.538225 0.277518
v 0.757076 0.539104 0.276276
v 0.768904 0.498913 0.232335
v -0.143510 0.689602 0.610755
v -0.143588 0.689100 0.611584
v -0.587082 0.671964 0.395830
v 0.295765 0.636521 0.589601
v 0.366661 0.645635 0.542567
v 0.945934 0.371433 -0.112978
v 0.935222 0.306744 -0.341165
v 0.946608 0.370744 -0.112420
v 0.932222 0.301976 -0.413520
v 0.925343 0.278875 -0.421123
v -0.280401 0.173142 -1.151922
v -0.685574 0.285384 -0.893516
v -0.722300 0.304052 -0.852089
v -0.947514 0.475203 -0.494850
v -0.948768 0.474326 -0.494470
v -0.904965 0.612148 -0.025438
v 0.932743 0.301348 -0.412829
v 0.233040 -0.159223 1.016172
v -0.123887 -0.335190 1.030506
v -0.138900 0.051585 0.937131
v -0.211996 -0.021330 0.612450
v 0.055844 0.059124 0.672121
v -0.393248 -0.087744 0.974822
v -0.318021 -0.096341 0.593237
v -0.429905 -0.186335 0.969816
v -0.354678 -0.194932 0.588232
v -0.380659 -0.267071 1.019542
v -0.305432 -0.275668 0.637957
v -0.277045 -0.349348 1.003624
v -0.201818 -0.357944 0.622040
v -0.053259 -0.378687 0.651794
v 0.010000 -0.291529 1.086028
v 0.059472 -0.326768 0.686185
v 0.072484 -0.221077 1.054445
v 0.149164 -0.249373 0.660298
v 0.139050 -0.149181 1.073857
v 0.236407 -0.173753 0.704284
v 0.106502 -0.091978 1.044369
v 0.181730 -0.100574 0.662785
v 0.083547 -0.010740 0.670476
v -0.149397 -0.064533 1.008989
v -0.125815 -0.373811 1.034312
vn 0.1799 0.8831 -0.4332
vn 0.0235 0.8863 -0.4624
vn 0.0933 0.9534 -0.2869
vn 0.0934 0.9534 -0.2868
vn 0.0933 0.9534 -0.2868
vn 0.2758 0.9039 -0.3270
vn 0.5309 0.2642 -0.8052
vn 0.2578 0.3191 -0.9120
vn 0.1111 0.5320 -0.8394
vn -0.0138 0.2520 -0.9676
vn -0.3822 0.4623 -0.8001
vn -0.4730 0.5667 -0.6747
vn -0.5991 0.7816 -0.1737
vn -0.6962 0.6979 0.1681
vn -0.2658 0.8360 0.4801
vn 0.1271 0.8436 0.5218
vn 0.4951 0.7595 0.4220
vn 0.8469 0.5306 0.0343
vn 0.7392 0.6704 -0.0635
vn 0.7278 0.6802 -0.0873
vn 0.7934 0.5927 -0.1389
vn 0.7847 -0.0299 -0.6192
vn -0.2514 -0.6916 -0.6771
vn -0.9132 0.0692 0.4016
vn 0.4064 0.3135 0.8582
vn 0.8855 0.3015 0.3535
vn 0.8020 -0.5675 -0.1866
vn 0.1178 0.3231 0.9390
vn 0.2510 -0.8587 -0.4468
vn -0.0317 -0.8984 -0.4379
vn -0.4464 -0.8391 -0.3108
vn -0.6123 -0.7907 0.0017
vn -0.7730 0.0151 0.6342
vn -0.3729 -0.4248 0.8249
vn 0.0290 -0.2321 0.9723
vn 0.1493 -0.1984 0.9687
vn 0.4850 -0.6047 0.6318
vn 0.8149 -0.5795 -0.0094
vn 0.5683 -0.7694 -0.2917
vn -0.0276 -0.9314 0.3629
vn -0.3282 -0.9064 0.2660
vn -0.1465 -0.9665 0.2107
vn -0.1782 -0.9530 0.2450
vn -0.1882 -0.9380 0.2910
vn -0.1729 -0.9254 0.3372
vn -0.1349 -0.9188 0.3710
vn 0.0611 -0.9110 0.4078
vn -0.0093 -0.9015 0.4326
vn -0.2079 -0.7214 0.6605
vn -0.0690 -0.9249 0.3739
vn -0.0807 -0.9466 0.3122
vn 0.4814 0.0747 -0.8733
vn 0.8052 0.5886 -0.0722
vn -0.6810 -0.7145 0.1602
vn -0.5675 0.5438 -0.6183
vn -0.4050 0.8904 0.2077
vn -0.9946 -0.0724 -0.0743
vn -0.9181 0.0827 0.3876
vn -0.0805 0.1484 -0.9856
vn 0.7791 0.5151 -0.3573
vn 0.5641 -0.5034 -0.6545
vn -0.1302 0.0415 -0.9906
vn 0.2548 -0.8742 -0.4134
vn 0.4647 -0.8846 0.0397
vn 0.8565 -0.4238 0.2946
vn 0.4985 0.1889 0.8460
vn -0.0257 0.1188 0.9926
vn -0.6524 -0.3132 0.6901
vn -0.5754 0.0178 -0.8176
vn -0.3420 -0.8160 -0.4660
vn -0.7469 -0.4161 -0.5187
vn 0.3368 -0.5696 0.7497
vn 0.1905 0.8696 0.4556
vn 0.8470 0.5305 0.0344
vn 0.7884 0.5737 0.2221
vn 0.7540 0.4732 0.4556
vn -0.5606 -0.7797 -0.2790
vn -0.1534 -0.2682 0.9511
vn 0.9552 0.2958 -0.0134
vn 0.5090 0.4952 -0.7040
vn 0.6785 0.3175 -0.6625
vn 0.5309 0.2641 -0.8052
vn 0.8371 0.5422 0.0731
vn 0.7392 0.6705 -0.0634
vn 0.7780 0.5940 -0.2049
vn 0.7934 0.5927 -0.1388
vn 0.8300 0.4817 -0.2812
vn 0.8728 0.3068 -0.3796
vn 0.8203 0.2545 -0.5123
vn 0.5310 0.2642 -0.8052
vn 0.7490 0.3641 -0.5535
vn 0.3200 0.2139 -0.9230
vn -0.2034 0.3668 -0.9078
vn -0.2030 0.3710 -0.9062
vn -0.5358 0.4429 -0.7188
vn -0.4295 0.5168 -0.7406
vn -0.5675 0.5437 -0.6183
vn -0.5594 0.8067 0.1909
vn -0.4667 0.7532 0.4635
vn -0.5003 0.7976 0.3370
vn 0.5502 -0.8279 0.1088
vn -0.4007 0.1121 0.9093
vn 0.2125 -0.3129 0.9257
vn 0.2361 0.7949 -0.5589
vn -0.0692 0.7447 -0.6638
vn -0.2286 0.7044 -0.6720
vn -0.4810 0.7271 -0.4899
vn -0.3912 0.8924 -0.2250
vn -0.3514 0.9356 0.0350
vn -0.1278 0.9760 0.1764
vn 0.1252 0.9577 0.2592
vn 0.3760 0.9110 0.1693
vn 0.6386 0.7682 0.0455
vn 0.4130 0.8413 -0.3489
vn 0.6438 0.1949 -0.7399
vn -0.6857 0.7008 0.1968
vn 0.5593 0.0899 0.8241
vn 0.9060 0.0884 0.4140
vn 0.1371 -0.2701 -0.9530
vn -0.8581 -0.4377 -0.2686
vn -0.9800 -0.1939 -0.0438
vn 0.3054 0.1242 0.9441
vn 0.1574 -0.9579 -0.2403
vn -0.2673 -0.9431 -0.1980
vn -0.2620 -0.9436 -0.2026
vn -0.2629 -0.9435 -0.2018
vn -0.2906 -0.8847 -0.3645
vn -0.2905 -0.8847 -0.3645
vn -0.5591 -0.8284 0.0339
vn -0.5743 -0.7703 0.2771
vn -0.4828 -0.5516 0.6802
vn -0.1825 -0.5380 0.8229
vn 0.2358 -0.7361 0.6345
vn 0.3432 -0.3935 0.8528
vn 0.6142 -0.7160 0.3318
vn 0.3922 -0.9184 -0.0532
vn 0.3895 0.8088 -0.4406
vn 0.2449 0.8027 -0.5438
vn 0.6493 0.7552 -0.0899
vn 0.1819 0.9340 0.3074
vn -0.1711 0.7732 -0.6107
vn -0.2675 -0.9430 -0.1979
vn 0.3891 -0.9181 -0.0756
vn -0.1279 0.8403 0.5269
vn -0.4303 -0.7150 0.5509
vn 0.0615 -0.7403 0.6695
vn 0.1584 -0.7557 0.6354
vn 0.3444 -0.9298 0.1296
vn 0.3004 -0.7673 0.5665
vn 0.5551 0.7933 -0.2501
vn -0.3345 0.9408 -0.0553
vn -0.2196 0.7715 -0.5972
vn -0.1785 0.2833 -0.9423
vn 0.2587 -0.9569 -0.1318
vn -0.5593 0.8067 0.1909
vn -0.5147 0.8572 0.0175
vn 0.2740 0.6878 0.6722
vn -0.7161 0.3482 0.6050
vn -0.8490 -0.2859 0.4443
vn 0.2314 0.4707 -0.8514
vn -0.3917 0.4435 -0.8062
vn -0.6241 0.2978 -0.7224
vn -0.9772 0.1622 -0.1368
vn -0.3480 0.6557 0.6700
vn 0.1051 0.4783 0.8719
vn 0.8502 0.4941 -0.1815
vn 0.7726 0.4163 -0.4793
vn 0.4718 -0.5849 -0.6598
vn -0.6087 -0.3717 -0.7010
vn -0.9363 -0.0981 0.3372
vn -0.4080 -0.2688 0.8725
vn 0.7202 -0.2451 0.6490
vn 0.8938 -0.4071 0.1884
vn 0.7688 -0.4248 -0.4781
vn 0.7695 -0.4257 -0.4760
vn 0.7684 -0.4243 -0.4790
vn -0.9092 0.4146 -0.0384
vn -0.6559 0.4265 -0.6228
vn -0.7277 0.4344 0.5308
vn -0.0189 -0.0194 -0.9996
vn 0.8774 0.3031 -0.3719
vn 0.5725 0.2636 -0.7764
vn -0.1865 -0.6659 -0.7223
vn 0.7706 -0.4270 -0.4731
vn 0.4441 -0.5602 -0.6992
vn 0.6757 0.6071 0.4181
vn 0.9503 -0.3083 -0.0434
vn 0.0264 -0.0977 -0.9949
vn 0.3271 -0.4340 0.8394
vn -0.8875 -0.1421 0.4383
vn -0.8875 -0.1420 0.4383
vn 0.4173 0.5568 0.7182
vn 0.9306 0.3288 0.1611
vn 0.8511 -0.1668 0.4978
vn -0.6762 0.0348 -0.7358
vn -0.9898 -0.0330 0.1385
vn -0.4321 -0.5214 -0.7358
vn -0.0709 0.8567 0.5110
vn -0.0708 0.8567 0.5110
vn -0.0707 0.8567 0.5110
vn 0.1589 0.8576 0.4892
vn 0.1589 0.8575 0.4892
vn 0.3474 0.8256 0.4447
vn 0.6803 0.7286 0.0798
vn 0.8728 0.3068 -0.3795
vn 0.5576 0.4422 -0.7025
vn -0.0473 0.2006 -0.9785
vn -0.5211 0.5561 -0.6475
vn -0.6029 0.6849 -0.4093
vn -0.6028 0.6849 -0.4093
vn -0.0473 0.2005 -0.9785
vn 0.2577 0.3191 -0.9120
vn 0.2577 0.3190 -0.9120
vn -0.1887 -0.1356 0.9726
vn -0.1054 0.2912 0.9508
vn -0.1794 0.2886 0.9405
vn 0.1277 -0.3350 -0.9335
vn -0.2345 0.0829 0.9686
vn 0.9222 -0.3729 0.1022
vn 0.7516 -0.6273 -0.2042
vn 0.9968 -0.0765 -0.0235
vn -0.8853 -0.1338 0.4454
vn -0.8875 -0.1421 0.4384
vn 0.4895 -0.2675 -0.8300
vn 0.1180 -0.6479 -0.7526
vn -0.8496 0.2015 -0.4875
vn -0.9493 0.3142 0.0113
vn -0.4297 0.1583 0.8890
vn -0.1951 -0.1329 0.9717
vn 0.9853 0.1032 -0.1360
vn -0.8261 -0.5163 0.2259
vn -0.2574 -0.6323 -0.7308
vn 0.6907 -0.1240 0.7124
vn -0.7301 -0.4777 0.4887
vn 0.8197 -0.1981 -0.5374
vn 0.5839 -0.7692 0.2594
vn 0.6117 -0.5354 0.5824
vn 0.8053 0.5885 -0.0722
vn -0.2517 0.9549 -0.1578
vn -0.8644 0.4692 -0.1810
vn -0.8644 0.4691 -0.1810
vn -0.8024 -0.5788 -0.1452
vn -0.6283 -0.7706 -0.1065
vn -0.4641 -0.8829 -0.0715
vn -0.4641 -0.8829 -0.0716
vn 0.3824 -0.9151 0.1280
vn 0.6720 -0.7178 0.1823
vn 0.5799 -0.7884 0.2052
vn 0.7557 0.6409 0.1345
vn 0.6754 0.7282 0.1167
vn 0.7671 0.2907 0.5719
vn -0.0603 0.5292 0.8464
vn 0.1884 0.0977 -0.9772
vn -0.0799 0.4204 0.9038
vn -0.2323 -0.0472 0.9715
vn 0.0638 0.3606 0.9305
vn -0.3800 0.0467 0.9238
vn -0.1882 0.0659 0.9799
vn 0.1015 -0.0642 0.9928
vn -0.2845 0.3709 0.8840
vn -0.1389 0.0014 0.9903
vn -0.1669 0.5297 0.8316
vn 0.1934 -0.0221 -0.9809
vn 0.3135 -0.3520 -0.8820
vn -0.0256 0.1587 -0.9870
vn 0.3210 -0.0714 -0.9444
vn -0.2543 -0.0287 -0.9667
vn -0.6485 -0.6793 -0.3435
vn 0.7685 0.2850 0.5728
vn -0.1563 -0.9876 -0.0171
vn 0.4863 -0.8676 0.1033
vn 0.7721 -0.6176 0.1500
vn -0.4884 0.8685 -0.0851
vn 0.6957 -0.6941 0.1852
vn 0.4437 0.8810 0.1642
vn 0.8133 0.5542 0.1774
s 1
usemtl mat15
f 3//1 2//1 1//1
f 2//2 4//2 1//2
f 4//3 5//3 1//4
f 5//3 6//5 1//4
f 6//5 7//5 1//4
f 7//5 8//4 1//4
f 8//4 9//4 1//4
f 9//4 10//4 1//4
f 10//4 11//4 1//4
f 11//6 3//6 1//6
f 25//7 24//8 12//9
f 28//10 27//10 26//10 14//10
f 26//11 29//11 15//11 14//11
f 29//12 30//12 17//12 15//12
f 33//13 32//13 31//13 16//13 17//13
f 35//14 34//14 19//14 16//14
f 34//15 38//15 37//15 36//15 18//15 19//15
f 36//16 40//16 39//16 18//16
f 43//17 42//17 41//17 20//17 21//17
f 45//18 44//19 22//20
f 44//19 46//21 22//20
f 48//22 47//22 13//22 23//22
f 74//23 55//23 53//23
f 76//24 77//24 60//24
f 78//25 67//25 65//25
f 80//26 79//26 67//26
f 72//27 70//27 69//27
f 93//28 92//28 90//28
f 101//29 100//29 99//29
f 102//30 84//30 83//30
f 102//31 103//31 85//31
f 103//32 104//32 87//32
f 105//33 106//33 86//33
f 106//34 108//34 107//34
f 108//35 109//35 92//35
f 109//36 94//36 92//36
f 110//37 95//37 94//37
f 110//38 111//38 95//38
f 111//39 101//39 97//39
f 124//40 112//40 123//40
f 124//41 113//41 112//41
f 124//42 114//42 113//42
f 124//43 115//43 114//43
f 124//44 116//44 115//44
f 124//45 117//45 116//45
f 124//46 118//46 117//46
f 124//47 125//47 118//47
f 124//48 120//48 125//48
f 124//49 121//49 120//49
f 124//50 122//50 121//50
f 124//51 123//51 122//51
f 127//52 126//52 49//52
f 46//53 48//53 23//53 22//53
f 105//54 86//54 87//54
f 30//55 33//55 17//55
f 130//56 129//56 128//56 59//56
f 76//57 58//57 56//57
f 60//58 58//58 76//58
f 132//59 131//59 50//59
f 47//60 133//60 13//60
f 71//61 51//61 70//61
f 51//62 71//62 73//62
f 100//63 83//63 99//63
f 101//64 99//64 97//64
f 82//65 69//65 81//65
f 78//66 80//66 67//66
f 63//67 90//67 78//67
f 107//68 91//68 106//68
f 53//69 73//69 74//69
f 85//70 84//70 102//70
f 75//71 56//71 55//71
f 109//72 119//72 94//72
f 39//73 43//73 21//73 18//73
f 137//74 136//75 135//75 64//76
f 87//77 85//77 103//77
f 93//78 107//78 108//78
f 45//79 22//79 20//79 41//79
f 13//80 133//81 25//82
f 28//59 14//59 12//59 24//59
f 35//56 16//56 31//56
f 142//17 62//17 64//17 135//17
f 137//74 64//76 66//83 145//84 143//84
f 145//85 66//85 68//85 144//85
f 144//86 68//87 146//88 154//53
f 146//88 68//87 147//89
f 147//60 68//60 49//60 126//60
f 127//90 49//91 50//92 131//8
f 132//10 50//10 52//10 148//10
f 148//93 52//94 54//95 149//96
f 149//12 54//12 150//12
f 150//97 54//97 57//97 152//97
f 151//13 152//13 57//13 128//13 129//13 153//13
f 130//98 59//99 140//100
f 140//15 59//15 61//15 139//15
f 138//16 139//16 61//16 62//16 141//16
f 141//73 62//73 142//73
f 25//52 12//52 13//52
f 155//101 92//101 78//101
f 77//102 90//102 63//102
f 108//103 92//103 93//103
usemtl mat19
f 13//104 12//104 2//104
f 14//105 4//105 2//105
f 14//106 15//106 4//106
f 15//107 5//107 4//107
f 17//108 16//108 6//108 5//108
f 16//109 7//109 6//109
f 19//110 18//110 8//110 7//110
f 18//111 9//111 8//111
f 21//112 20//112 10//112 9//112
f 22//113 11//113 10//113
f 23//114 3//114 11//114
f 51//115 50//115 49//115
f 58//116 60//116 59//116
f 65//117 64//117 62//117
f 67//118 66//118 64//118
f 83//119 84//119 73//119
f 85//120 75//120 74//120
f 87//121 86//121 75//121
f 92//122 94//122 80//122
f 112//123 100//123 101//123
f 112//124 113//125 102//126
f 113//127 114//128 103//127 102//128
f 114//129 115//129 104//129 103//129
f 115//130 116//130 105//130 104//130
f 116//131 117//131 106//131
f 117//131 118//131 108//131 106//131
f 118//132 109//132 108//132
f 120//133 119//133 109//133
f 120//134 121//134 110//134
f 121//135 122//135 111//135
f 122//136 123//136 111//136
f 23//137 13//137 3//137
f 2//138 3//138 13//138
f 22//139 23//139 11//139
f 18//140 21//140 9//140
f 2//141 12//141 14//141
f 102//126 100//142 112//124
f 123//143 101//143 111//143
f 63//144 65//144 62//144
f 106//145 105//145 116//145
f 118//146 125//146 109//146
f 109//147 125//147 120//147
f 111//148 110//148 121//148
f 110//149 119//149 120//149
f 10//150 20//150 22//150
f 16//151 19//151 7//151
f 15//152 17//152 5//152
f 52//153 53//153 55//153
f 101//154 123//154 112//154
f 29//12 149//12 150//12 30//12
f 130//98 35//155 31//156 32//156 153//156 129//156
f 78//157 134//157 155//157
f 91//158 107//158 90//158
f 91//159 88//159 89//159
usemtl mat13
f 51//160 53//160 52//160
f 55//161 54//161 52//161
f 55//162 56//162 54//162
f 56//163 58//163 57//163
f 60//164 61//164 59//164
f 63//165 62//165 61//165
f 69//166 68//166 66//166
f 69//167 70//167 68//167
f 83//168 71//168 72//168
f 85//169 74//169 73//169
f 89//170 88//170 76//170
f 91//171 90//171 77//171
f 94//172 95//172 80//172
f 95//173 97//173 96//173 79//173
f 99//174 82//175 98//176
f 60//164 63//164 61//164
f 58//177 128//177 57//177
f 56//178 57//178 54//178
f 59//179 128//179 58//179
f 52//180 50//180 51//180
f 70//181 49//181 68//181
f 49//182 70//182 51//182
f 73//183 71//183 83//183
f 99//174 72//184 82//175
f 72//185 99//185 83//185
f 67//186 81//186 66//186
f 96//187 82//187 79//187
f 134//188 78//188 90//188
f 80//189 78//189 92//189
f 77//190 76//191 88//190
f 65//192 67//192 64//192
f 66//193 81//193 69//193
f 95//194 79//194 80//194
f 85//195 87//195 75//195
f 86//196 89//196 76//196 75//196
f 73//197 84//197 85//197
f 38//100 140//100 139//198 138//199 37//199
f 36//200 37//199 138//199 141//201 40//202
f 39//201 40//202 141//201 142//203 42//203 43//203
f 42//203 142//203 135//75 136//75 41//75
f 45//204 137//204 143//204 44//204
f 44//19 143//84 145//84 144//21 46//21
f 46//21 144//21 146//88 48//205
f 48//22 146//22 147//22 47//22
f 47//60 147//60 126//60 133//60
f 25//206 127//206 131//206 24//206
f 27//207 132//207 148//93 26//93
f 26//93 148//93 149//96 29//96
f 30//208 150//208 152//209 151//210 33//209
f 33//13 151//13 153//13 32//13
f 35//155 130//98 140//100 38//100 34//100
f 137//79 45//79 41//79 136//79
f 127//52 25//52 133//52 126//52
f 132//207 27//207 28//211 24//212 131//213
f 155//214 90//214 92//214
f 155//215 134//215 156//215
f 156//216 134//216 90//216
f 155//217 156//217 90//217
f 90//218 107//218 93//218
f 96//219 97//219 98//219
f 97//220 99//220 98//220
f 96//221 98//221 82//221
f 89//222 86//222 91//222
f 91//223 77//190 88//190
usemtl mat21
f 72//224 71//224 70//224
f 73//225 53//225 51//225
f 74//226 75//226 55//226
f 75//227 76//227 56//227
f 77//228 63//228 60//228
f 78//229 65//229 63//229
f 79//230 82//230 81//230
f 104//231 105//231 87//231
f 83//232 100//232 102//232
f 79//233 81//233 67//233
f 106//234 91//234 86//234
f 69//235 82//235 72//235
f 111//236 97//236 95//236
f 94//237 119//237 110//237
usemtl mat18
f 144//238 154//238 146//238
usemtl mat14
f 159//239 158//239 157//239
f 158//240 161//240 160//241
f 161//240 163//241 162//241 160//241
f 163//242 165//242 164//242 162//242
f 165//243 167//243 166//243 164//243
f 167//244 168//245 166//245
f 168//246 170//246 169//246
f 170//247 172//247 171//247
f 172//248 174//248 173//248
f 174//249 176//249 175//249
f 176//250 177//250 175//250
f 177//251 159//251 157//251
f 175//252 157//252 178//252
f 158//253 159//253 177//253
f 173//254 175//254 178//254
f 171//255 173//255 178//255
f 169//256 171//256 178//256
f 179//257 169//257 178//257
f 166//258 179//258 178//258
f 164//259 166//259 178//259
f 162//260 164//260 178//260
f 160//261 162//261 178//261
f 157//262 160//262 178//262
f 161//263 158//263 177//263
f 163//263 161//263 177//263
f 165//264 163//264 177//264
f 167//265 165//265 177//265
f 168//263 167//263 177//263
f 170//266 168//266 177//266
f 172//267 170//267 177//267
f 174//263 172//263 177//263
f 176//268 174//268 177//268
f 157//269 178//269 159//269
f 168//270 179//270 166//270
f 169//271 179//271 168//271
f 171//272 169//272 170//272
f 160//273 157//273 158//273
f 173//274 171//274 172//274
f 177//275 157//275 175//275
f 175//276 173//276 174//276
